#!OML:ASF E:\acrobat2\Project_11_07_03\Capture day 1\Session 1\Acrobat.ASF
:FULLY-SPECIFIED
:DEGREES
498
root 10.7188 27.5669 19.4712 8.18241 -0.551238 -1.88062
lowerback 4.64371 0.470355 -1.11423
upperback 3.43596 0.588538 -0.547399
thorax 0.919764 0.280368 0.0411606
lowerneck 1.05631 -1.64471 -1.08926
upperneck 22.3405 -2.26632 0.448267
head 6.63529 -1.14342 0.209379
rclavicle 4.17448e-015 -8.34896e-015
rhumerus -46.3738 5.73061 -78.9832
rradius 51.5244
rwrist 9.8201
rhand -12.298 -12.5707
rfingers 7.12502
rthumb 13.7698 -42.095
lclavicle 4.17448e-015 -8.34896e-015
lhumerus -25.8983 -5.22053 77.7682
lradius 72.838
lwrist 12.0115
lhand -47.37 -48.629
lfingers 7.12502
lthumb -20.0629 -19.6448
rfemur -20.3354 0.89089 20.4496
rtibia 43.6047
rfoot -20.4147 -5.47534
rtoes -16.2961
lfemur -27.8921 -11.3537 -13.7471
ltibia 37.1323
lfoot -10.5897 -17.2055
ltoes 29.2263
499
root 10.7226 27.5537 19.3582 8.1012 -1.11007 -1.33597
lowerback 4.80235 0.489634 -1.82548
upperback 3.48163 0.586869 -0.80267
thorax 0.875171 0.269855 0.176642
lowerneck 1.1886 -1.50813 -1.08854
upperneck 21.9574 -2.10494 0.569196
head 6.48827 -1.05955 0.258948
rclavicle 6.55989e-015 -7.55382e-015
rhumerus -46.491 5.3162 -79.3738
rradius 52.5844
rwrist 9.71921
rhand -11.9233 -13.1469
rfingers 7.12502
rthumb 14.1309 -42.6464
lclavicle 6.55989e-015 -7.55382e-015
lhumerus -25.7212 -5.14798 77.2222
lradius 72.632
lwrist 12.1746
lhand -47.3604 -48.5813
lfingers 7.12502
lthumb -20.0537 -19.5961
rfemur -22.2407 0.289356 19.5558
rtibia 47.0199
rfoot -18.6762 -4.98055
rtoes -13.1898
lfemur -27.2474 -12.271 -14.6577
ltibia 37.1595
lfoot -12.9804 -17.0994
ltoes 24.3372
500
root 10.7229 27.5413 19.2444 8.06197 -1.62506 -0.821461
lowerback 4.94185 0.499874 -2.48733
upperback 3.49467 0.572379 -1.04742
thorax 0.808828 0.254168 0.295514
lowerneck 1.26664 -1.36779 -1.20576
upperneck 21.6962 -1.94324 0.751237
head 6.39203 -0.979987 0.346523
rclavicle -1.78906e-015 3.97569e-016
rhumerus -46.7061 4.90643 -79.7837
rradius 53.6766
rwrist 9.44612
rhand -11.5872 -13.6327
rfingers 7.12502
rthumb 14.4548 -43.1092
lclavicle -1.78906e-015 3.97569e-016
lhumerus -25.5892 -5.12082 76.6985
lradius 72.4466
lwrist 12.2873
lhand -47.3014 -48.6438
lfingers 7.12502
lthumb -19.997 -19.6527
rfemur -24.1564 -0.333045 18.7852
rtibia 50.0915
rfoot -17.3489 -4.63771
rtoes -11.0443
lfemur -26.534 -12.8996 -15.5096
ltibia 36.9915
lfoot -15.2997 -16.8945
ltoes 18.9697
501
root 10.7222 27.5298 19.1307 8.06024 -2.05816 -0.420152
lowerback 5.06288 0.486818 -2.98264
upperback 3.48587 0.531181 -1.25895
thorax 0.732386 0.228193 0.356285
lowerneck 1.21564 -1.23669 -1.43964
upperneck 21.7208 -1.79575 0.972151
head 6.41104 -0.912817 0.463629
rclavicle -5.96354e-015 1.27222e-014
rhumerus -46.9891 4.47993 -80.2094
rradius 54.773
rwrist 9.0525
rhand -11.4278 -13.9538
rfingers 7.12502
rthumb 14.6083 -43.4193
lclavicle -5.96354e-015 1.27222e-014
lhumerus -25.5012 -5.14568 76.2048
lradius 72.3095
lwrist 12.3318
lhand -47.2611 -48.7208
lfingers 7.12502
lthumb -19.9583 -19.7257
rfemur -26.0173 -1.00476 18.2307
rtibia 52.7014
rfoot -16.5172 -4.42574
rtoes -9.91525
lfemur -25.7605 -13.2825 -16.2053
ltibia 36.632
lfoot -17.4607 -16.5865
ltoes 13.5602
502
root 10.722 27.5198 19.0179 8.10719 -2.38991 -0.1462
lowerback 5.14378 0.432155 -3.29136
upperback 3.46634 0.442072 -1.42968
thorax 0.669819 0.181171 0.356949
lowerneck 0.986739 -1.11452 -1.74245
upperneck 22.1047 -1.65535 1.18304
head 6.57656 -0.85465 0.587786
rclavicle 3.97569e-015 1.03368e-014
rhumerus -47.2969 4.03991 -80.6555
rradius 55.85
rwrist 8.61882
rhand -11.5135 -14.0685
rfingers 7.12502
rthumb 14.5258 -43.54
lclavicle 3.97569e-015 1.03368e-014
lhumerus -25.4419 -5.17155 75.7296
lradius 72.2174
lwrist 12.3254
lhand -47.1952 -48.8224
lfingers 7.12502
lthumb -19.8949 -19.8207
rfemur -27.792 -1.7441 17.9015
rtibia 54.7721
rfoot -16.1394 -4.34594
rtoes -9.6049
lfemur -24.9698 -13.4996 -16.724
ltibia 36.1163
lfoot -19.1161 -16.5289
ltoes 10.9057
503
root 10.7227 27.5123 18.9071 8.21219 -2.61629 0.026104
lowerback 5.15385 0.330303 -3.44506
upperback 3.45226 0.299557 -1.56536
thorax 0.654529 0.109134 0.309877
lowerneck 0.561515 -0.998074 -2.0405
upperneck 22.827 -1.51064 1.33621
head 6.88592 -0.798523 0.693208
rclavicle 9.93923e-016 1.43125e-014
rhumerus -47.591 3.57648 -81.117
rradius 56.8891
rwrist 8.23041
rhand -11.7859 -13.9839
rfingers 7.12502
rthumb 14.2633 -43.4741
lclavicle 9.93923e-016 1.43125e-014
lhumerus -25.3792 -5.17286 75.2739
lradius 72.1711
lwrist 12.2481
lhand -47.1411 -48.8767
lfingers 7.12502
lthumb -19.843 -19.8696
rfemur -29.4645 -2.55012 17.7588
rtibia 56.265
rfoot -16.1336 -4.33441
rtoes -9.75361
lfemur -24.2099 -13.6396 -17.0868
ltibia 35.498
lfoot -20.4319 -16.617
ltoes 9.92555
